<svg width="354" height="243" viewBox="0 0 354 243" fill="none" xmlns="http://www.w3.org/2000/svg">
<path d="M245 188C245 188 281.5 174 285.5 200.5C285.5 225 232.5 251 177.5 239L199 227.5L196.5 237C225 235 245 231 266.5 217C291.616 196.06 266.269 186.036 234.5 202.5L237 191.5C207.5 202.5 187 212.5 169.5 231V218.5C146 224.5 115.5 214.5 95.5 183.5H119.5C148.093 222.42 188.085 191.376 189.5 191.5V200.5C211.32 187.596 228.5 181.5 248 177.5L245 188Z" fill="url(#paint0_linear_59_7)"/>
<path d="M153.5 0C158 1.50011 163 6.00019 162 12C160.031 5.00011 152 5.00014 144.5 8C124.743 16.4304 118.713 23.9221 112 39.5C106.5 55 109 76.5 128 88.5C138.5 95.4998 150 95.5001 159.5 109.5C158.836 102.675 155.828 99.0504 148.5 94C148.807 90.4112 149.291 88.4476 150.5 85C148.026 86.6279 146.819 88.0416 145 91.5C144.391 87.0001 144.627 84.482 146 80C144.227 80.3576 143.437 80.9693 142 82C143 75 147 69.5 152.5 64C152.5 64 149.806 63.763 147.5 64.5C153.914 54.0405 159.5 48 173 46C163.179 43.0036 158.133 43.1859 149.5 45C155.347 39.5601 163.501 36.5 177.5 37C177.5 36.0001 175 35.5 172.5 35C169.734 33.1575 168.401 31.6462 166 29C164.5 27.5 157.5 26 149 25C165 23.5001 175.5 26.5001 184.5 33.5C183.387 30.3915 182.397 28.9009 180 26C186.049 28.0938 188.336 29.7617 189.5 34.5H194L206 41H211L213 39V41H215L216 38C218.813 39.6965 219.764 41.0122 220.5 44V50L219.5 51V54C216.501 51.5001 214.814 50.4822 211.5 50C211.45 51.6867 210.357 53.3249 208.5 54V51H206C205.341 53.0513 204.603 54.2432 202.5 54.5C202.569 52.4213 202.565 51.45 201.5 51H199.5C199.5 52.9999 198.203 53.5612 196 53.5V52C191.501 52 189.5 51.4998 186.5 49C186.842 52.3738 188.39 53.8563 192.5 54V57H197.5L200.5 54.5V57H204.5L207 54.5V57H209.5L214.5 53L219 57L215 62.5H213.5C213.5 62.5 212 61.4999 208 59.5H203C193.535 63.4853 184.07 64.989 184 65L187.5 61H172.5C174.875 57.9406 176.104 56.2024 178 53L165 64H180C177.362 71.9798 176.436 76.8682 177.5 84.5C180.49 95.3018 183.5 100.5 192 106L188.5 99.5C190.131 97.9745 191.555 97.372 194.5 96.5C215.5 96.4999 227 89.9999 240 74C249.5 59.5001 248 44.4999 237 28C225.501 15.5002 212 7.00022 202.5 6.5C197.177 7.10225 195.046 8.48822 192.5 12.5C192.485 6.07039 194.084 2.95795 200.5 0.5L203 2.5C213.001 2.50005 232.001 4.50009 252 11C252.12 11.0345 281.554 19.5417 308 40C335.708 62.3431 349.5 88.5 354 102.5C354 102.5 348.848 95.0004 343 95.5C343.018 95.5582 349.999 119.034 348.5 146C348.5 146 346.5 176.5 336 194.5C337.351 185.627 336.468 176.233 334.617 168.5C331.669 156.188 326.264 148.087 323.5 153C314.001 170.5 307.501 182 304.5 184.5C304.513 184.443 311 153.981 310.5 133.5C309.005 127.517 303.532 120.043 303.5 120C305.484 116.374 307.788 114.789 312 112H277.5C277.5 112 274.5 104 267.5 100C270.492 82.0528 264.535 74.5438 264.5 74.5C264.518 74.5453 268.989 86.0307 263.5 101.5C259.518 102.496 256.031 105.97 256 106C256 106 230 101.813 214 106.5C251 104.5 272.5 112.5 272.5 112.5L86.0004 112C86.0903 111.976 102.589 107.495 135 105.5L99.0004 106C97.5004 104 94.5136 102.747 91.0004 101C88.5004 98.5 88.9585 91.9034 89.0004 80.5C86.0239 83.6939 85.7255 89.0538 86.5004 102C81.0005 104.5 80.5002 109 76.5004 112H41.0004L52.0004 120C51.5004 128.5 43.5004 129 44.5004 148C45.0277 158.019 45.0004 166 51.5004 186C36.5007 176 34.5001 154.001 28.5004 153.5C21.5004 158 18.0004 171.5 19.5004 194C13.2065 179.964 10.5544 169.205 7.5004 144.5C6.91407 121.045 7.33742 109.483 11.0004 95C5.50056 96.5 3.30416 97.9784 0.000396729 100C6.39752 87.1462 10.8997 79.5998 22.0004 65C37.5003 46.5001 52.5005 31.9999 82.0004 17C100 10 117.001 2.5 150 3L153.5 0ZM104.659 20C63.1587 37.5 23.1586 79.0001 26.1586 133.5C26.1586 133.5 27.1587 96 47.1586 69C70.6296 35.0419 104.575 20.0369 104.659 20ZM254 19.5C254.123 19.5541 288.043 34.5614 311.5 68.5C331.5 95.5 332.5 133 332.5 133C335.5 78.5002 295.5 37.0001 254 19.5ZM107 34C90.0004 44.5 71.5004 70.5 68.0004 101C76.0004 70.0001 90.5004 48.7907 99.5004 47C99.5004 69.5 106 86.5 119.5 96C101.5 82.5 97.0004 43 107 34ZM252 34C261 46.0001 257.5 80 239.5 96C253 86.5 259.5 69.4999 259.5 47C268 49.5004 281.001 67.9431 291 101C287.5 70.5002 269 44.5001 252 34ZM213.499 46.5C214.845 46.9838 216.269 46.4758 218 48L217.999 47C216.699 46.4842 216.197 46.0095 215.499 45H213.999L213.499 46.5ZM190 40.5C189.86 41.9914 191 43.5 193.5 44.5H190C191 45.9998 192 46 194 46C196.5 45.4999 198.5 43.5 198.5 43.5C197 43 194 41.9999 192.5 40.5H190Z" fill="url(#paint1_linear_59_7)"/>
<path d="M111.5 113.5H47C55 121 73.5 134 95 138.5V181.5H111.5V165.5L242 165.992V176.492L258.5 176.5V130L303 126.5V113.5H251.5H111.5Z" fill="url(#paint2_linear_59_7)"/>
<defs>
<linearGradient id="paint0_linear_59_7" x1="114.5" y1="195" x2="151" y2="262.5" gradientUnits="userSpaceOnUse">
<stop offset="0.204242" stop-color="#EE4523"/>
<stop offset="1" stop-color="#F7A036"/>
<stop offset="1" stop-color="#F7A036"/>
</linearGradient>
<linearGradient id="paint1_linear_59_7" x1="177" y1="0" x2="177" y2="194.5" gradientUnits="userSpaceOnUse">
<stop stop-color="#F7A235"/>
<stop offset="0.461538" stop-color="#DC3928"/>
</linearGradient>
<linearGradient id="paint2_linear_59_7" x1="175" y1="114" x2="175" y2="223" gradientUnits="userSpaceOnUse">
<stop stop-color="#652D90"/>
<stop offset="1" stop-color="#4A1F6B"/>
</linearGradient>
</defs>
</svg>
